<svg width="46" height="104" viewBox="0 0 46 104" fill="none" xmlns="http://www.w3.org/2000/svg" xmlns:xlink="http://www.w3.org/1999/xlink">
<path d="M44.41,50.065L30.749,26.666L24.93,39.318L31.204,50.064C31.782,51.057 31.782,52.678 31.204,53.67L29.389,56.777C29.389,56.777 30.613,59.914 30.669,60.103C30.951,61.073 31.019,63.351 30.218,64.39L15.95,83.156C15.947,89.453 15.942,102.401 15.948,102.407C15.95,102.408 44.41,53.669 44.41,53.669C44.988,52.677 44.988,51.057 44.41,50.065Z" fill="#3E8EDE"/>
<path d="M12.681,53.009C12.104,52.022 12.104,50.402 12.681,49.41L14.497,46.297L13.255,43.24C12.663,41.803 12.85,39.76 13.666,38.69L27.937,19.923L27.947,0.684L27.939,0.676L27.931,0.659L-0.524,49.41C-1.103,50.402 -1.103,52.022 -0.523,53.014L13.135,76.413L18.955,63.761L12.681,53.009Z" fill="#002D73"/>
<path d="M35.129,12.056C35.398,12.056 35.66,12.337 35.78,12.754C35.997,13.521 35.684,14.205 35.511,14.581L23.007,41.771C22.88,42.045 22.87,42.635 22.986,42.919C23.054,43.086 29.737,59.696 29.967,60.26C30.295,61.071 30.264,63.158 29.61,64.008L9.505,90.449C9.222,90.82 9.013,91.022 8.72,91.026C8.468,90.997 8.215,90.712 8.105,90.334C7.885,89.568 8.215,88.84 8.373,88.491L20.874,61.313C21.002,61.019 21.015,60.458 20.9,60.159L13.921,42.968C13.416,41.735 13.573,39.987 14.272,39.071L34.38,12.626C34.683,12.221 34.9,12.056 35.129,12.056ZM35.129,11.967C34.888,11.967 34.661,12.137 34.348,12.555L14.24,39C13.517,39.946 13.356,41.745 13.879,43.019L20.857,60.209C20.959,60.476 20.946,60.997 20.832,61.259L8.332,88.436C8.167,88.8 7.824,89.559 8.058,90.374C8.176,90.78 8.446,91.084 8.716,91.115C9.03,91.111 9.254,90.891 9.536,90.52L29.641,64.079C30.336,63.177 30.339,61.022 30.01,60.209C29.777,59.638 23.029,42.868 23.029,42.868C22.926,42.616 22.935,42.069 23.048,41.826L35.552,14.636C35.716,14.279 36.06,13.539 35.827,12.715C35.698,12.268 35.419,11.967 35.129,11.967Z" fill="#3E8EDE"/>
<path d="M29.288,60.526C29.45,60.946 29.596,62.538 29.188,63.064L9.08,89.509C8.911,89.731 8.803,89.838 8.754,89.831C8.685,89.838 8.735,89.627 8.92,89.219L21.419,62.049C21.735,61.348 21.757,60.199 21.466,59.484L14.489,42.282C14.489,42.283 29.127,60.104 29.288,60.526Z" fill="#FFCE00"/>
<path d="M29.288,60.526L22.417,43.594C22.125,42.876 22.148,41.724 22.461,41.041L34.962,13.854C35.148,13.449 35.196,13.247 35.129,13.247C35.079,13.247 34.969,13.346 34.803,13.572L14.694,40.014C14.291,40.546 14.196,41.569 14.489,42.283L29.288,60.526Z" fill="#FFDE6E"/>
</svg>
