<svg width="202" height="200" viewBox="0 0 202 200" fill="none" xmlns="http://www.w3.org/2000/svg" xmlns:xlink="http://www.w3.org/1999/xlink">
<path d="M100.8,200C156.028,200 200.8,155.228 200.8,100C200.8,44.772 156.028,0 100.8,0C45.571,0 0.8,44.772 0.8,100C0.8,155.228 45.571,200 100.8,200Z" fill="#B00000" fill-opacity="0.15"/>
<path d="M153.986,125.079C153.986,123.422 152.642,122.079 150.986,122.079C149.329,122.079 147.986,123.422 147.986,125.079L153.986,125.079ZM147.986,85.498C147.986,87.155 149.329,88.498 150.986,88.498C152.642,88.498 153.986,87.155 153.986,85.498L147.986,85.498ZM147.986,125.079L147.986,128.016L153.986,128.016L153.986,125.079L147.986,125.079ZM147.986,128.016C147.986,129.194 147.518,130.324 146.685,131.156L150.927,135.399C152.886,133.441 153.986,130.785 153.986,128.016L147.986,128.016ZM146.685,131.156C145.852,131.99 144.722,132.458 143.544,132.458L143.544,138.458C146.313,138.458 148.969,137.357 150.927,135.399L146.685,131.156ZM143.544,132.458L54.241,132.458L54.241,138.458L143.544,138.458L143.544,132.458ZM54.241,132.458C53.063,132.458 51.933,131.99 51.1,131.156L46.858,135.399C48.816,137.357 51.472,138.458 54.241,138.458L54.241,132.458ZM51.1,131.156C50.267,130.324 49.799,129.194 49.799,128.016L43.799,128.016C43.799,130.785 44.899,133.441 46.858,135.399L51.1,131.156ZM49.799,128.016L49.799,73.442L43.799,73.442L43.799,128.016L49.799,128.016ZM49.799,73.442C49.799,72.264 50.267,71.134 51.1,70.301L46.858,66.058C44.899,68.017 43.799,70.673 43.799,73.442L49.799,73.442ZM51.1,70.301C51.933,69.468 53.063,69 54.241,69L54.241,63C51.472,63 48.816,64.1 46.858,66.058L51.1,70.301ZM54.241,69L143.544,69L143.544,63L54.241,63L54.241,69ZM143.544,69C144.722,69 145.852,69.468 146.685,70.301L150.927,66.058C148.969,64.1 146.313,63 143.544,63L143.544,69ZM146.685,70.301C147.518,71.134 147.986,72.264 147.986,73.442L153.986,73.442C153.986,70.673 152.886,68.017 150.927,66.058L146.685,70.301ZM147.986,73.442L147.986,85.498L153.986,85.498L153.986,73.442L147.986,73.442Z" fill="#B00000"/>
<line x1="135.885" y1="86.465" x2="135.885" y2="94.772" stroke="#B00000" stroke-width="3" stroke-miterlimit="10" stroke-linecap="round" stroke-linejoin="round"/>
<line x1="135.885" y1="114.157" x2="135.885" y2="122.465" stroke="#B00000" stroke-width="3" stroke-miterlimit="10" stroke-linecap="round" stroke-linejoin="round"/>
<path d="M155.197,98.393C156.64,97.578 157.148,95.748 156.333,94.305C155.518,92.863 153.688,92.354 152.245,93.169L155.197,98.393ZM145.352,97.066C143.909,97.881 143.401,99.711 144.216,101.153C145.031,102.596 146.861,103.104 148.304,102.289L145.352,97.066ZM152.245,93.169L145.352,97.066L148.304,102.289L155.197,98.393L152.245,93.169Z" fill="#B00000"/>
<path d="M132.418,111.86C133.86,111.045 134.369,109.214 133.554,107.772C132.738,106.33 130.908,105.821 129.466,106.636L132.418,111.86ZM122.572,110.532C121.13,111.348 120.621,113.178 121.437,114.62C122.252,116.063 124.082,116.571 125.524,115.756L122.572,110.532ZM129.466,106.636L122.572,110.532L125.524,115.756L132.418,111.86L129.466,106.636Z" fill="#B00000"/>
<path d="M125.525,93.172C124.083,92.357 122.252,92.865 121.437,94.307C120.621,95.75 121.13,97.58 122.572,98.395L125.525,93.172ZM129.465,102.292C130.907,103.108 132.738,102.6 133.553,101.157C134.368,99.715 133.86,97.885 132.418,97.069L129.465,102.292ZM122.572,98.395L129.465,102.292L132.418,97.069L125.525,93.172L122.572,98.395Z" fill="#B00000"/>
<path d="M148.306,106.641C146.863,105.826 145.033,106.334 144.218,107.776C143.402,109.219 143.91,111.049 145.353,111.864L148.306,106.641ZM152.246,115.761C153.688,116.577 155.518,116.068 156.334,114.626C157.149,113.184 156.641,111.354 155.198,110.538L152.246,115.761ZM145.353,111.864L152.246,115.761L155.198,110.538L148.306,106.641L145.353,111.864Z" fill="#B00000"/>
<path d="M59.474,113.339C58.302,114.511 58.302,116.41 59.474,117.582C60.645,118.753 62.545,118.754 63.716,117.582L59.474,113.339ZM77.206,99.849L79.328,97.728C78.156,96.557 76.257,96.557 75.085,97.728L77.206,99.849ZM88.672,111.315L86.55,113.436C87.722,114.608 89.622,114.608 90.793,113.436L88.672,111.315ZM114.744,89.485C115.915,88.314 115.915,86.414 114.744,85.243C113.572,84.071 111.673,84.071 110.501,85.243L114.744,89.485ZM63.716,117.582L79.328,101.971L75.085,97.728L59.474,113.339L63.716,117.582ZM75.085,101.971L86.55,113.436L90.793,109.193L79.328,97.728L75.085,101.971ZM90.793,113.436L114.744,89.485L110.501,85.243L86.55,109.193L90.793,113.436Z" fill="#B00000"/>
</svg>
