<svg width="202" height="200" viewBox="0 0 202 200" fill="none" xmlns="http://www.w3.org/2000/svg" xmlns:xlink="http://www.w3.org/1999/xlink">
<path d="M100.8,200C156.028,200 200.8,155.228 200.8,100C200.8,44.772 156.028,0 100.8,0C45.571,0 0.8,44.772 0.8,100C0.8,155.228 45.571,200 100.8,200Z" fill="#B00000" fill-opacity="0.15"/>
<path d="M71.193,45.124C69.729,45.901 69.173,47.717 69.95,49.181C70.727,50.644 72.543,51.2 74.006,50.423L71.193,45.124ZM113.578,42.66L114.291,39.746L114.291,39.746L113.578,42.66ZM147.572,66.108L150.043,64.407L150.042,64.407L147.572,66.108ZM157.347,106.231L154.371,105.857L154.371,105.857L157.347,106.231ZM137.949,142.688L139.923,144.948L139.923,144.948L137.949,142.688ZM99.211,156.997L99.181,159.997L99.181,159.997L99.211,156.997ZM42.117,105.062L39.134,105.376L39.134,105.376L42.117,105.062ZM55.141,66.897C56.108,65.552 55.802,63.677 54.456,62.71C53.111,61.743 51.236,62.05 50.269,63.395L55.141,66.897ZM74.006,50.423C85.926,44.094 99.756,42.369 112.865,45.574L114.291,39.746C99.751,36.191 84.412,38.105 71.193,45.124L74.006,50.423ZM112.865,45.574C125.974,48.78 137.447,56.694 145.101,67.81L150.042,64.407C141.554,52.079 128.83,43.302 114.291,39.746L112.865,45.574ZM145.101,67.81C152.754,78.925 156.053,92.467 154.371,105.857L160.324,106.605C162.19,91.754 158.531,76.735 150.043,64.407L145.101,67.81ZM154.371,105.857C152.688,119.247 146.141,131.551 135.976,140.428L139.923,144.948C151.197,135.102 158.458,121.456 160.324,106.605L154.371,105.857ZM135.976,140.428C125.811,149.305 112.737,154.134 99.242,153.997L99.181,159.997C114.148,160.149 128.648,154.793 139.923,144.948L135.976,140.428ZM99.242,153.997C85.747,153.86 72.774,148.767 62.79,139.686L58.753,144.124C69.825,154.196 84.214,159.845 99.181,159.997L99.242,153.997ZM62.79,139.686C52.807,130.605 46.511,118.17 45.101,104.749L39.134,105.376C40.698,120.261 47.681,134.052 58.753,144.124L62.79,139.686ZM45.101,104.749C43.69,91.327 47.264,77.855 55.141,66.897L50.269,63.395C41.533,75.549 37.569,90.49 39.134,105.376L45.101,104.749Z" fill="#B00000"/>
<path d="M67.94,47.492C67.476,48.495 67.913,49.683 68.915,50.147C69.918,50.611 71.106,50.174 71.57,49.171L67.94,47.492ZM75.459,40.764C75.923,39.762 75.486,38.573 74.484,38.11C73.481,37.646 72.293,38.083 71.829,39.085L75.459,40.764ZM71.57,49.171L75.459,40.764L71.829,39.085L67.94,47.492L71.57,49.171Z" fill="#B00000"/>
<path d="M70.499,45.893C69.475,45.48 68.309,45.976 67.897,47.001C67.484,48.026 67.98,49.191 69.005,49.603L70.499,45.893ZM77.23,52.916C78.254,53.328 79.42,52.832 79.832,51.808C80.245,50.783 79.749,49.618 78.724,49.205L77.23,52.916ZM69.005,49.603L77.23,52.916L78.724,49.205L70.499,45.893L69.005,49.603Z" fill="#B00000"/>
<path d="M142.053,99C142.053,122.336 123.136,141.254 99.8,141.254L99.8,147.254C126.449,147.254 148.053,125.65 148.053,99L142.053,99ZM99.8,141.254C76.463,141.254 57.546,122.336 57.546,99L51.546,99C51.546,125.65 73.15,147.254 99.8,147.254L99.8,141.254ZM57.546,99C57.546,75.664 76.463,56.746 99.8,56.746L99.8,50.746C73.15,50.746 51.546,72.35 51.546,99L57.546,99ZM99.8,56.746C123.136,56.746 142.053,75.664 142.053,99L148.053,99C148.053,72.35 126.449,50.746 99.8,50.746L99.8,56.746Z" fill="#B00000"/>
<path d="M99.8,60.904L99.8,60.904C98.397,60.904 97.26,62.041 97.26,63.444L97.26,66.83C97.26,68.233 98.397,69.37 99.8,69.37L99.8,69.37C101.202,69.37 102.34,68.233 102.34,66.83L102.34,63.444C102.34,62.041 101.202,60.904 99.8,60.904Z" fill="#B00000"/>
<path d="M99.801,128.629L99.801,128.629C98.398,128.629 97.261,129.766 97.261,131.169L97.261,134.555C97.261,135.957 98.398,137.094 99.801,137.094L99.801,137.094C101.204,137.094 102.341,135.957 102.341,134.555L102.341,131.169C102.341,129.766 101.204,128.629 99.801,128.629Z" fill="#B00000"/>
<path d="M133.662,94.767L133.662,94.767C132.259,94.767 131.122,95.904 131.122,97.307L131.122,100.693C131.122,102.095 132.259,103.232 133.662,103.232L133.662,103.232C135.064,103.232 136.201,102.095 136.201,100.693L136.201,97.307C136.201,95.904 135.064,94.767 133.662,94.767Z" transform="rotate(180 133.662 99)" fill="#B00000"/>
<path d="M65.938,94.767L65.938,94.767C64.535,94.767 63.398,95.904 63.398,97.307L63.398,100.693C63.398,102.095 64.535,103.232 65.938,103.232L65.938,103.232C67.34,103.232 68.477,102.095 68.477,100.693L68.477,97.307C68.477,95.904 67.34,94.767 65.938,94.767Z" transform="rotate(180 65.938 99)" fill="#B00000"/>
<path d="M88.693,97.114C87.505,95.96 85.605,95.987 84.45,97.175C83.296,98.363 83.323,100.262 84.511,101.417L88.693,97.114ZM95.963,108.364L93.872,110.516C95.036,111.647 96.889,111.647 98.054,110.516L95.963,108.364ZM117.49,91.623C118.678,90.469 118.705,88.569 117.551,87.381C116.396,86.193 114.497,86.166 113.308,87.321L117.49,91.623ZM84.511,101.417L93.872,110.516L98.054,106.213L88.693,97.114L84.511,101.417ZM98.054,110.516L117.49,91.623L113.308,87.321L93.872,106.213L98.054,110.516Z" fill="#B00000"/>
</svg>
