<svg width="200" height="200" viewBox="0 0 200 200" fill="none" xmlns="http://www.w3.org/2000/svg" xmlns:xlink="http://www.w3.org/1999/xlink">
<path d="M99.631,200C154.656,200 199.262,155.228 199.262,100C199.262,44.772 154.656,0 99.631,0C44.606,0 0,44.772 0,100C0,155.228 44.606,200 99.631,200Z" fill="#B00000" fill-opacity="0.15"/>
<path d="M52.981,94.813C54.701,94.813 56.095,93.419 56.095,91.699C56.095,89.979 54.701,88.585 52.981,88.585L52.981,94.813ZM44.888,92.832L42.605,90.714L42.605,90.715L44.888,92.832ZM44.888,113.815L42.605,115.932L42.605,115.933L44.888,113.815ZM52.981,118.062C54.701,118.062 56.095,116.667 56.095,114.948C56.095,113.228 54.701,111.834 52.981,111.834L52.981,118.062ZM52.981,88.585L47.425,88.585L47.425,94.813L52.981,94.813L52.981,88.585ZM47.425,88.585C45.569,88.585 43.84,89.382 42.605,90.714L47.171,94.95C47.281,94.831 47.378,94.813 47.425,94.813L47.425,88.585ZM42.605,90.715C41.377,92.039 40.723,93.788 40.723,95.567L46.951,95.567C46.951,95.295 47.054,95.076 47.172,94.949L42.605,90.715ZM40.723,95.567L40.723,111.08L46.951,111.08L46.951,95.567L40.723,95.567ZM40.723,111.08C40.723,112.859 41.377,114.608 42.605,115.932L47.172,111.698C47.054,111.571 46.951,111.352 46.951,111.08L40.723,111.08ZM42.605,115.933C43.84,117.264 45.568,118.062 47.425,118.062L47.425,111.834C47.378,111.834 47.281,111.816 47.171,111.697L42.605,115.933ZM47.425,118.062L52.981,118.062L52.981,111.834L47.425,111.834L47.425,118.062Z" fill="#B00000"/>
<path d="M147.919,88.585C146.199,88.585 144.805,89.979 144.805,91.699C144.805,93.419 146.199,94.813 147.919,94.813L147.919,88.585ZM154.371,92.832L156.655,90.715L156.654,90.714L154.371,92.832ZM154.371,113.815L156.654,115.933L156.655,115.932L154.371,113.815ZM146.278,111.834C144.558,111.834 143.164,113.228 143.164,114.948C143.164,116.667 144.558,118.062 146.278,118.062L146.278,111.834ZM147.919,94.813L151.835,94.813L151.835,88.585L147.919,88.585L147.919,94.813ZM151.835,94.813C151.881,94.813 151.978,94.831 152.088,94.95L156.654,90.714C155.419,89.382 153.691,88.585 151.835,88.585L151.835,94.813ZM152.088,94.949C152.205,95.076 152.308,95.295 152.308,95.567L158.536,95.567C158.536,93.788 157.882,92.039 156.655,90.715L152.088,94.949ZM152.308,95.567L152.308,111.08L158.536,111.08L158.536,95.567L152.308,95.567ZM152.308,111.08C152.308,111.352 152.205,111.571 152.088,111.698L156.655,115.932C157.882,114.608 158.536,112.859 158.536,111.08L152.308,111.08ZM152.088,111.697C151.978,111.816 151.881,111.834 151.835,111.834L151.835,118.062C153.691,118.062 155.419,117.264 156.654,115.933L152.088,111.697ZM151.835,111.834L146.278,111.834L146.278,118.062L151.835,118.062L151.835,111.834Z" fill="#B00000"/>
<path d="M120.424,138.046C118.767,138.046 117.424,139.39 117.424,141.046C117.424,142.703 118.767,144.046 120.424,144.046L120.424,138.046ZM127.715,141.046L127.715,144.046L128.694,144.046L129.484,143.469L127.715,141.046ZM145.164,116.796L148.022,117.707L148.022,117.706L145.164,116.796ZM144.979,86.859L142.132,87.805L142.132,87.805L144.979,86.859ZM127.233,62.828L125.494,65.273L125.494,65.273L127.233,62.828ZM98.796,54.007L98.848,57.007L98.849,57.007L98.796,54.007ZM53.77,88.446L56.648,89.293L56.648,89.293L53.77,88.446ZM54.614,118.371L51.789,119.379L51.789,119.379L54.614,118.371ZM71.202,144.483C72.573,145.413 74.438,145.055 75.368,143.684C76.298,142.313 75.941,140.448 74.57,139.517L71.202,144.483ZM120.424,144.046L127.715,144.046L127.715,138.046L120.424,138.046L120.424,144.046ZM129.484,143.469C138.232,137.081 144.725,128.056 148.022,117.707L142.305,115.885C139.393,125.025 133.661,132.989 125.946,138.624L129.484,143.469ZM148.022,117.706C151.32,107.357 151.251,96.221 147.826,85.913L142.132,87.805C145.157,96.908 145.217,106.745 142.305,115.885L148.022,117.706ZM147.826,85.913C144.402,75.606 137.798,66.662 128.972,60.384L125.494,65.273C133.278,70.81 139.108,78.702 142.132,87.805L147.826,85.913ZM128.972,60.384C120.146,54.105 109.557,50.819 98.744,51.008L98.849,57.007C108.376,56.841 117.71,59.736 125.494,65.273L128.972,60.384ZM98.744,51.008C87.932,51.196 77.462,54.847 68.857,61.429L72.502,66.195C80.092,60.39 89.321,57.172 98.848,57.007L98.744,51.008ZM68.857,61.429C60.252,68.01 53.96,77.178 50.892,87.598L56.648,89.293C59.358,80.09 64.913,72 72.502,66.195L68.857,61.429ZM50.892,87.598C47.824,98.018 48.138,109.151 51.789,119.379L57.44,117.362C54.215,108.329 53.938,98.496 56.648,89.293L50.892,87.598ZM51.789,119.379C55.44,129.608 62.239,138.402 71.202,144.483L74.57,139.517C66.666,134.155 60.664,126.395 57.44,117.362L51.789,119.379Z" fill="#B00000"/>
<path d="M114.741,145.65L114.741,148.65L114.752,148.65L114.741,145.65ZM95.469,145.65L95.456,148.65L95.469,148.65L95.469,145.65ZM92.781,144.503L90.635,146.6L90.635,146.6L92.781,144.503ZM91.661,141.752L88.661,141.752L88.661,141.765L91.661,141.752ZM91.661,141.244L88.661,141.229L88.661,141.244L91.661,141.244ZM92.782,138.493L94.927,140.59L94.928,140.589L92.782,138.493ZM95.469,137.346L95.469,134.346L95.455,134.346L95.469,137.346ZM114.741,137.346L114.754,134.346L114.741,134.346L114.741,137.346ZM117.429,138.492L115.283,140.589L115.284,140.589L117.429,138.492ZM118.55,141.244L121.55,141.244L121.55,141.231L118.55,141.244ZM118.55,141.752L121.55,141.764L121.55,141.752L118.55,141.752ZM117.43,144.504L115.284,142.407L115.284,142.407L117.43,144.504ZM114.741,142.65L95.469,142.65L95.469,148.65L114.741,148.65L114.741,142.65ZM95.483,142.65C95.288,142.649 95.086,142.57 94.927,142.406L90.635,146.6C91.902,147.896 93.634,148.642 95.456,148.65L95.483,142.65ZM94.927,142.407C94.765,142.241 94.662,142.002 94.661,141.739L88.661,141.765C88.668,143.566 89.371,145.305 90.635,146.6L94.927,142.407ZM94.661,141.752L94.661,141.244L88.661,141.244L88.661,141.752L94.661,141.752ZM94.661,141.258C94.662,140.994 94.765,140.755 94.927,140.59L90.636,136.396C89.371,137.69 88.669,139.429 88.661,141.229L94.661,141.258ZM94.928,140.589C95.087,140.426 95.289,140.347 95.484,140.346L95.455,134.346C93.633,134.355 91.903,135.1 90.636,136.396L94.928,140.589ZM95.469,140.346L114.741,140.346L114.741,134.346L95.469,134.346L95.469,140.346ZM114.728,140.346C114.923,140.347 115.124,140.426 115.283,140.589L119.575,136.396C118.308,135.099 116.576,134.354 114.754,134.346L114.728,140.346ZM115.284,140.589C115.445,140.754 115.549,140.993 115.55,141.256L121.55,141.231C121.542,139.429 120.84,137.69 119.575,136.396L115.284,140.589ZM115.55,141.244L115.55,141.752L121.55,141.752L121.55,141.244L115.55,141.244ZM115.55,141.74C115.549,142.004 115.445,142.242 115.284,142.407L119.575,146.601C120.841,145.305 121.543,143.565 121.55,141.764L115.55,141.74ZM115.284,142.407C115.125,142.57 114.924,142.649 114.73,142.65L114.752,148.65C116.576,148.643 118.308,147.898 119.576,146.6L115.284,142.407Z" fill="#B00000"/>
<path d="M70.113,111.724L82.556,111.724L82.556,108.707L75.227,108.707L75.227,108.588L77.775,106.091C81.363,102.818 82.326,101.182 82.326,99.196C82.326,96.17 79.855,94.031 76.113,94.031C72.449,94.031 69.934,96.222 69.943,99.648L73.446,99.648C73.437,97.977 74.494,96.955 76.088,96.955C77.622,96.955 78.764,97.909 78.764,99.443C78.764,100.832 77.912,101.787 76.326,103.312L70.113,109.065L70.113,111.724ZM84.591,108.656L92.969,108.656L92.969,111.724L96.498,111.724L96.498,108.656L98.662,108.656L98.662,105.699L96.498,105.699L96.498,94.27L91.878,94.27L84.591,105.75L84.591,108.656ZM93.037,105.699L88.307,105.699L88.307,105.562L92.901,98.293L93.037,98.293L93.037,105.699ZM111.834,109.304L114.076,107.062L110.104,103.099L114.076,99.136L111.834,96.878L107.863,100.849L103.882,96.878L101.65,99.136L105.613,103.099L101.65,107.062L103.882,109.304L107.863,105.332L111.834,109.304ZM118.124,111.724L121.934,111.724L129.178,97.33L129.178,94.27L116.931,94.27L116.931,97.287L125.36,97.287L125.36,97.406L118.124,111.724Z" fill="#B00000"/>
</svg>
