<svg width="202" height="200" viewBox="0 0 202 200" fill="none" xmlns="http://www.w3.org/2000/svg" xmlns:xlink="http://www.w3.org/1999/xlink">
<path d="M100.8,200C156.028,200 200.8,155.228 200.8,100C200.8,44.772 156.028,0 100.8,0C45.571,0 0.8,44.772 0.8,100C0.8,155.228 45.571,200 100.8,200Z" fill="#B00000" fill-opacity="0.15"/>
<path d="M87.284,151.202L88.48,148.451L88.457,148.441L88.433,148.431L87.284,151.202ZM88.676,151.492L88.673,154.492L88.684,154.492L88.676,151.492ZM91.921,149.311L89.149,148.164L89.145,148.173L91.921,149.311ZM94.769,142.428L95.175,139.456L92.882,139.143L91.997,141.281L94.769,142.428ZM105.211,142.414L107.981,141.263L107.092,139.122L104.796,139.442L105.211,142.414ZM108.071,149.302L110.85,148.173L110.841,148.152L108.071,149.302ZM109.969,151.217L108.817,153.987L108.818,153.987L109.969,151.217ZM112.666,151.213L111.517,148.442L111.506,148.446L112.666,151.213ZM124.57,146.277L123.43,143.502L123.421,143.506L124.57,146.277ZM126.504,144.337L123.731,143.193L123.725,143.207L126.504,144.337ZM126.48,141.685L123.707,142.83L123.717,142.855L123.728,142.879L126.48,141.685ZM123.632,134.786L121.821,132.395L119.976,133.792L120.859,135.931L123.632,134.786ZM131.018,127.409L132.165,124.637L130.028,123.752L128.629,125.595L131.018,127.409ZM137.877,130.247L139.067,127.494L139.045,127.484L139.024,127.475L137.877,130.247ZM140.591,130.276L141.724,133.053L141.724,133.053L140.591,130.276ZM142.512,128.357L139.741,127.208L139.736,127.221L142.512,128.357ZM147.455,116.437L150.226,117.586L150.227,117.585L147.455,116.437ZM147.461,113.752L144.679,114.874L144.684,114.887L147.461,113.752ZM145.553,111.835L144.4,114.605L144.419,114.613L145.553,111.835ZM140.67,109.803L141.823,107.033L141.283,106.808L140.698,106.803L140.67,109.803ZM61.115,109.077L61.143,106.077L60.535,106.072L59.972,106.304L61.115,109.077ZM54.383,111.852L53.24,109.078L53.22,109.087L53.199,109.095L54.383,111.852ZM52.541,116.422L55.314,115.279L55.305,115.258L52.541,116.422ZM57.463,128.364L54.689,129.507L54.695,129.522L57.463,128.364ZM59.363,130.255L60.529,127.49L60.507,127.481L59.363,130.255ZM62.05,130.259L60.905,127.486L60.893,127.491L62.05,130.259ZM68.955,127.408L71.343,125.592L69.945,123.753L67.81,124.635L68.955,127.408ZM76.344,134.799L79.116,135.946L79.999,133.81L78.16,132.411L76.344,134.799ZM73.513,141.642L76.254,142.861L76.27,142.825L76.285,142.789L73.513,141.642ZM73.47,144.336L76.249,143.206L76.249,143.205L73.47,144.336ZM75.398,146.274L76.547,143.503L76.542,143.501L75.398,146.274ZM86.088,153.953C86.904,154.308 87.783,154.491 88.673,154.492L88.68,148.492C88.611,148.492 88.543,148.478 88.48,148.451L86.088,153.953ZM88.684,154.492C91.321,154.486 93.696,152.891 94.697,150.449L89.145,148.173C89.067,148.365 88.879,148.492 88.669,148.492L88.684,154.492ZM94.693,150.458L97.541,143.575L91.997,141.281L89.149,148.164L94.693,150.458ZM94.363,145.401C98.1,145.911 101.89,145.906 105.625,145.385L104.796,139.442C101.605,139.888 98.368,139.892 95.175,139.456L94.363,145.401ZM102.44,143.564L105.3,150.453L110.841,148.152L107.981,141.263L102.44,143.564ZM105.291,150.431C105.945,152.04 107.214,153.32 108.817,153.987L111.121,148.447C110.998,148.396 110.9,148.297 110.85,148.173L105.291,150.431ZM108.818,153.987C110.421,154.653 112.223,154.651 113.825,153.98L111.506,148.446C111.383,148.498 111.245,148.498 111.121,148.447L108.818,153.987ZM113.815,153.984L125.719,149.049L123.421,143.506L111.517,148.442L113.815,153.984ZM125.71,149.052C127.334,148.385 128.622,147.093 129.283,145.467L123.725,143.207C123.671,143.341 123.564,143.447 123.43,143.502L125.71,149.052ZM129.278,145.48C129.938,143.879 129.921,142.08 129.232,140.492L123.728,142.879C123.771,142.979 123.772,143.093 123.731,143.193L129.278,145.48ZM129.253,140.541L126.405,133.642L120.859,135.931L123.707,142.83L129.253,140.541ZM125.443,137.178C128.449,134.902 131.128,132.225 133.408,129.223L128.629,125.595C126.68,128.161 124.39,130.449 121.821,132.395L125.443,137.178ZM129.871,130.181L136.729,133.019L139.024,127.475L132.165,124.637L129.871,130.181ZM136.686,133.001C138.29,133.694 140.106,133.713 141.724,133.053L139.459,127.498C139.333,127.549 139.192,127.547 139.067,127.494L136.686,133.001ZM141.724,133.053C143.342,132.394 144.627,131.111 145.289,129.493L139.736,127.221C139.684,127.346 139.584,127.446 139.458,127.498L141.724,133.053ZM145.283,129.506L150.226,117.586L144.684,115.288L139.741,127.208L145.283,129.506ZM150.227,117.585C150.885,115.996 150.889,114.21 150.238,112.617L144.684,114.887C144.737,115.016 144.737,115.16 144.683,115.29L150.227,117.585ZM150.243,112.63C149.589,111.008 148.306,109.719 146.687,109.058L144.419,114.613C144.537,114.661 144.631,114.755 144.679,114.874L150.243,112.63ZM146.706,109.066L141.823,107.033L139.517,112.572L144.4,114.605L146.706,109.066ZM140.698,106.803L61.143,106.077L61.088,112.077L140.643,112.802L140.698,106.803ZM59.972,106.304L53.24,109.078L55.527,114.626L62.259,111.851L59.972,106.304ZM53.199,109.095C49.919,110.504 48.39,114.296 49.776,117.587L55.305,115.258C55.199,115.006 55.316,114.716 55.567,114.608L53.199,109.095ZM49.767,117.566L54.689,129.507L60.237,127.221L55.314,115.279L49.767,117.566ZM54.695,129.522C55.36,131.111 56.627,132.371 58.218,133.028L60.507,127.481C60.382,127.43 60.283,127.331 60.231,127.206L54.695,129.522ZM58.196,133.019C59.798,133.694 61.604,133.697 63.207,133.027L60.893,127.491C60.777,127.54 60.645,127.54 60.529,127.491L58.196,133.019ZM63.195,133.032L70.1,130.18L67.81,124.635L60.905,127.486L63.195,133.032ZM66.566,129.223C68.848,132.225 71.526,134.904 74.527,137.187L78.16,132.411C75.59,130.457 73.297,128.163 71.343,125.592L66.566,129.223ZM73.571,133.652L70.741,140.496L76.285,142.789L79.116,135.946L73.571,133.652ZM70.771,140.424C70.06,142.024 70.031,143.845 70.692,145.468L76.249,143.205C76.204,143.095 76.206,142.97 76.254,142.861L70.771,140.424ZM70.691,145.467C71.351,147.089 72.634,148.379 74.253,149.047L76.542,143.501C76.41,143.446 76.304,143.34 76.249,143.206L70.691,145.467ZM74.249,149.045L86.135,153.973L88.433,148.431L76.547,143.503L74.249,149.045Z" fill="#B00000"/>
<path d="M138.943,110.494L138.945,107.494L138.943,107.494L138.943,110.494ZM68.11,67.102L68.178,64.103L68.177,64.103L68.11,67.102ZM70.123,67.148L70.055,70.147L72.068,70.193L72.873,68.347L70.123,67.148ZM70.928,65.302L73.678,66.502L73.678,66.502L70.928,65.302ZM117.666,65.302L114.916,66.502L114.916,66.502L117.666,65.302ZM118.432,67.059L115.682,68.258L116.448,70.015L118.364,70.058L118.432,67.059ZM120.348,67.102L120.415,64.103L120.415,64.103L120.348,67.102ZM137.303,78.603L140.065,77.432L140.065,77.432L137.303,78.603ZM138.028,80.311L135.266,81.483L135.991,83.191L137.843,83.306L138.028,80.311ZM139.88,80.426L139.694,83.42L139.695,83.42L139.88,80.426ZM138.943,107.494L138.942,107.494L138.942,113.494L138.943,113.494L138.943,107.494ZM138.942,107.494L67.698,107.494L67.698,113.494L138.942,113.494L138.942,107.494ZM67.698,107.494C57.371,107.494 49,99.123 49,88.796L43,88.796C43,102.436 54.058,113.494 67.698,113.494L67.698,107.494ZM49,88.796C49,78.47 57.371,70.098 67.698,70.098L67.698,64.098C54.058,64.098 43,75.156 43,88.796L49,88.796ZM67.698,70.098C67.837,70.098 67.948,70.099 68.043,70.101L68.177,64.103C68.02,64.099 67.861,64.098 67.698,64.098L67.698,70.098ZM68.042,70.101L70.055,70.147L70.191,64.149L68.178,64.103L68.042,70.101ZM72.873,68.347L73.678,66.502L68.178,64.103L67.373,65.949L72.873,68.347ZM73.678,66.502C77.254,58.301 85.35,53 94.297,53L94.297,47C82.964,47 72.709,53.715 68.178,64.103L73.678,66.502ZM94.297,53C103.243,53 111.339,58.301 114.916,66.502L120.415,64.103C115.885,53.715 105.63,47 94.297,47L94.297,53ZM114.916,66.502L115.682,68.258L121.182,65.86L120.415,64.103L114.916,66.502ZM118.364,70.058L120.28,70.101L120.415,64.103L118.499,64.06L118.364,70.058ZM120.28,70.101C126.522,70.242 132.103,74.028 134.542,79.775L140.065,77.432C136.705,69.512 129.016,64.297 120.415,64.103L120.28,70.101ZM134.542,79.775L135.266,81.483L140.79,79.14L140.065,77.432L134.542,79.775ZM137.843,83.306L139.694,83.42L140.065,77.432L138.213,77.317L137.843,83.306ZM139.695,83.42C146.193,83.822 151.197,89.313 150.994,95.821L156.991,96.008C157.295,86.259 149.799,78.033 140.065,77.432L139.695,83.42ZM150.994,95.821C150.791,102.328 145.455,107.498 138.945,107.494L138.942,113.494C148.694,113.499 156.687,105.756 156.991,96.008L150.994,95.821Z" fill="#B00000"/>
<path d="M99.992,131.094L99.996,131.094C111.996,131.046 122.74,123.648 127.065,112.455C127.38,111.652 127.239,110.743 126.698,110.072C126.156,109.401 125.296,109.072 124.445,109.211C123.594,109.35 122.883,109.934 122.582,110.741C119.006,120.107 110.02,126.294 99.994,126.294C89.968,126.294 80.983,120.107 77.406,110.741C77.105,109.934 76.394,109.35 75.544,109.211C74.693,109.072 73.832,109.401 73.291,110.072C72.749,110.743 72.609,111.652 72.923,112.455C77.248,123.648 87.992,131.046 99.992,131.094Z" fill="#B00000" stroke="#B00000" stroke-width="0.5" stroke-miterlimit="3.999327"/>
</svg>
