<svg width="32" height="28" viewBox="0 0 32 28" fill="none" xmlns="http://www.w3.org/2000/svg" xmlns:xlink="http://www.w3.org/1999/xlink">
<path d="M31.86,4.373C27.088,6.803 24.702,9.657 24.702,12.937C26.736,13.18 28.418,14.04 29.748,15.518C31.077,16.996 31.742,18.707 31.742,20.651C31.742,22.716 31.097,24.457 29.806,25.874C28.515,27.291 26.892,28 24.937,28C22.746,28 20.849,27.079 19.246,25.236C17.642,23.394 16.84,21.157 16.84,18.525C16.84,10.629 21.103,4.454 29.63,0L31.86,4.373ZM15.02,4.373C10.209,6.803 7.803,9.657 7.803,12.937C9.876,13.18 11.578,14.04 12.907,15.518C14.237,16.996 14.902,18.707 14.902,20.651C14.902,22.716 14.247,24.457 12.937,25.874C11.626,27.291 9.994,28 8.038,28C5.847,28 3.96,27.079 2.376,25.236C0.792,23.394 0,21.157 0,18.525C0,10.629 4.244,4.454 12.731,0L15.02,4.373Z" clip-rule="evenodd" fill-rule="evenodd" fill="#2EC5CE"/>
</svg>
