<svg width="286" height="240" viewBox="0 0 286 240" fill="none" xmlns="http://www.w3.org/2000/svg" xmlns:xlink="http://www.w3.org/1999/xlink">
<path d="M284.746,37.484C242.098,58.308 220.774,82.776 220.774,110.889C238.952,112.972 253.984,120.347 265.868,133.015C277.754,145.683 283.698,160.347 283.698,177.007C283.698,194.707 277.93,209.632 266.394,221.778C254.856,233.926 240.35,240 222.87,240C203.294,240 186.34,232.104 172.007,216.312C157.675,200.52 150.508,181.345 150.508,158.785C150.508,91.106 188.612,38.178 264.82,0L284.746,37.484ZM134.237,37.484C91.239,58.308 69.74,82.776 69.74,110.889C88.268,112.972 103.475,120.347 115.36,133.015C127.246,145.683 133.189,160.347 133.189,177.007C133.189,194.707 127.333,209.632 115.622,221.778C103.911,233.926 89.317,240 71.838,240C52.262,240 35.395,232.104 21.237,216.312C7.079,200.52 0,181.345 0,158.785C0,91.106 37.929,38.178 113.787,0L134.237,37.484Z" clip-rule="evenodd" fill-rule="evenodd" fill="#B00000"/>
</svg>
