<svg width="180" height="52" viewBox="0 0 180 52" fill="none" xmlns="http://www.w3.org/2000/svg" xmlns:xlink="http://www.w3.org/1999/xlink">
<path d="M6.599,0.878L6.599,46.042C6.599,46.466 6.791,46.825 7.036,46.862C8.425,47.059 9.968,47.059 11.59,46.862C12.913,46.687 14.528,46.362 16.521,45.868C16.449,46.558 16.413,47.304 16.413,48.109C16.413,48.794 16.454,49.627 16.531,50.529L0.841,50.529L0.841,0.887C1.14,0.932 1.525,1.013 2.002,1.125C2.699,1.329 3.413,1.334 3.839,1.139L5.25,1.129C5.788,1.003 6.232,0.916 6.599,0.878ZM25.407,3.348C24.57,3.548 24.012,3.552 23.61,3.359L22.199,3.359C21.7,3.242 21.319,3.168 21.033,3.12L21.033,50.529L26.495,50.529L26.495,3.109C26.181,3.151 25.823,3.229 25.407,3.348ZM30.817,3.075C30.87,3.748 30.896,4.42 30.896,5.078C30.896,5.943 30.871,6.707 30.825,7.36L31.737,7.36C34.322,6.8 36.492,6.514 38.157,6.514C38.423,6.514 38.637,6.881 38.637,7.333L38.637,50.529L43.936,50.529L43.936,7.333C43.936,6.881 44.152,6.514 44.416,6.514C45.627,6.514 47.36,6.704 49.57,7.079C50.13,7.217 50.723,7.304 51.341,7.344C51.279,6.689 51.279,5.938 51.344,5.098C51.275,4.428 51.279,3.748 51.356,3.075L30.817,3.075L30.817,3.075ZM55.703,3.075L55.703,50.529L70.668,50.529C70.595,49.674 70.556,48.893 70.556,48.248C70.556,47.509 70.59,46.817 70.65,46.184C69.631,46.449 68.497,46.661 67.279,46.804C65.864,46.999 63.914,47.094 61.481,47.094C61.216,47.094 61.002,46.725 61.002,46.269L61.002,27.929C61.002,27.478 61.216,27.109 61.481,27.109L65.485,27.109C66.82,27.243 67.892,27.377 68.966,27.51L69.759,27.604C69.736,27.423 69.71,27.218 69.681,27.001L69.666,23.7C69.666,23.607 69.674,23.517 69.692,23.437C69.703,23.374 69.714,23.307 69.726,23.246C68.315,23.546 67.026,23.672 65.485,23.672L61.481,23.672C61.216,23.672 61.002,23.303 61.002,22.851L61.002,7.333C61.002,6.881 61.216,6.514 61.481,6.514C64.435,6.514 67.536,6.843 70.706,7.495C70.606,6.747 70.556,6.028 70.556,5.359C70.556,4.564 70.606,3.797 70.708,3.075L55.703,3.075L55.703,3.075ZM93.197,35.949C93.082,30.085 90.452,24.881 85.364,20.52C81.593,17.192 79.763,13.958 79.763,10.644C79.763,5.3 81.59,2.365 85.048,2.152C87.401,2.152 89.211,4.311 90.437,8.58C90.566,7.829 90.745,6.869 90.977,5.662C91.26,4.383 91.5,3.31 91.701,2.424C89.893,0.579 87.713,-0.451 85.218,-0.631C78.94,-0.062 75.774,4.892 75.556,14.51C75.556,20.99 77.954,26.195 82.683,29.961C86.637,33.038 88.64,36.566 88.64,40.433C88.389,45.868 86.498,48.715 83.015,48.93C79.569,48.724 77.413,45.946 76.595,40.668L76.534,40.668C76.313,43.536 75.962,46.368 75.49,49.092C77.587,50.451 79.763,51.234 81.964,51.416C88.916,51.414 92.754,45.772 93.197,35.949ZM102.349,29.119C102.266,29.129 102.146,29.165 102.045,29.335C101.957,29.485 101.906,29.689 101.906,29.898L101.906,50.529L96.407,50.529L96.407,3.067L106.314,3.067C111.986,3.067 114.797,6.781 114.902,14.413C114.943,18.566 114.276,21.872 112.922,24.233C111.059,27.486 107.797,29.135 103.227,29.135C102.946,29.135 102.666,29.128 102.349,29.119ZM102.3,26.727C102.511,26.78 102.74,26.808 102.97,26.808C103.646,26.808 104.426,26.584 105.285,26.145C107.781,24.922 109.167,21.445 109.4,15.759C109.167,9.349 107.695,5.784 104.995,5.162L102.366,5.162C102.113,5.162 101.906,5.516 101.906,5.948L101.906,25.954C101.906,26.342 102.074,26.674 102.3,26.727ZM136.899,3.067L136.899,50.529L151.889,50.529C151.818,49.667 151.779,48.872 151.779,48.21C151.779,47.458 151.81,46.752 151.877,46.11C150.846,46.381 149.704,46.597 148.484,46.74C147.056,46.933 145.165,47.025 142.696,47.025C142.442,47.025 142.236,46.67 142.236,46.243L142.236,27.924C142.236,27.494 142.442,27.14 142.696,27.14L147.136,27.14C148.804,27.312 150.322,27.476 151.713,27.638C151.688,27.444 151.662,27.225 151.626,26.986L151.612,23.7C151.612,23.61 151.619,23.525 151.637,23.45C151.652,23.366 151.668,23.284 151.683,23.209C150.296,23.491 148.769,23.637 147.137,23.637L142.696,23.637C142.442,23.637 142.236,23.284 142.236,22.854L142.236,7.356C142.236,6.923 142.442,6.572 142.696,6.572C145.656,6.572 148.763,6.906 151.934,7.56C151.829,6.795 151.78,6.065 151.78,5.386C151.78,4.57 151.829,3.797 151.939,3.067L136.899,3.067L136.899,3.067ZM164.867,50.529L155.74,50.529L155.74,3.067L167.48,3.063C175.395,3.986 179.454,11.289 179.884,25.345C179.352,41.142 174.298,49.615 164.867,50.529ZM173.727,25.389C173.727,12.343 170.306,5.723 163.566,5.723L161.53,5.723C161.281,5.723 161.073,6.078 161.073,6.511L161.073,47.088C161.073,47.517 161.281,47.872 161.53,47.872L163.329,47.872C166.775,47.872 169.403,45.945 171.144,42.152C172.855,38.409 173.727,32.77 173.727,25.389ZM117.971,3.067L117.971,50.529L132.958,50.529C132.887,49.667 132.846,48.872 132.846,48.21C132.846,47.458 132.879,46.752 132.944,46.11C131.91,46.381 130.771,46.597 129.553,46.74C128.126,46.933 126.231,47.025 123.762,47.025C123.511,47.025 123.304,46.67 123.304,46.243L123.304,27.924C123.304,27.494 123.511,27.14 123.762,27.14L128.205,27.14C129.875,27.312 131.39,27.476 132.781,27.638C132.757,27.444 132.728,27.225 132.695,26.986L132.68,23.7C132.68,23.61 132.69,23.525 132.706,23.45C132.72,23.366 132.735,23.284 132.747,23.209C131.365,23.491 129.839,23.637 128.205,23.637L123.762,23.637C123.511,23.637 123.304,23.284 123.304,22.854L123.304,7.356C123.304,6.923 123.511,6.572 123.762,6.572C126.722,6.572 129.829,6.906 133.001,7.56C132.899,6.795 132.847,6.065 132.847,5.386C132.847,4.57 132.901,3.797 133.003,3.067L117.971,3.067L117.971,3.067Z" fill="#002D73"/>
</svg>
