<svg width="42" height="38" viewBox="0 0 42 38" fill="none" xmlns="http://www.w3.org/2000/svg" xmlns:xlink="http://www.w3.org/1999/xlink">
<path d="M37.68,3.22C36.658,2.198 35.446,1.388 34.111,0.834C32.776,0.281 31.345,-0.003 29.9,-0.003C28.455,-0.003 27.024,0.281 25.689,0.834C24.354,1.388 23.141,2.198 22.12,3.22L20,5.34L17.88,3.22C15.817,1.157 13.018,-0.002 10.1,-0.002C7.182,-0.002 4.383,1.157 2.32,3.22C0.257,5.284 -0.903,8.082 -0.903,11C-0.903,13.918 0.257,16.717 2.32,18.78L4.44,20.9L20,36.46L35.56,20.9L37.68,18.78C38.702,17.759 39.513,16.546 40.066,15.211C40.619,13.876 40.904,12.445 40.904,11C40.904,9.555 40.619,8.124 40.066,6.79C39.513,5.455 38.702,4.242 37.68,3.22L37.68,3.22Z" fill="#FFFFFF"/>
</svg>
