<svg width="44" height="44" viewBox="0 0 44 44" fill="none" xmlns="http://www.w3.org/2000/svg" xmlns:xlink="http://www.w3.org/1999/xlink">
<path d="M36.322,5.482C32.23,1.381 26.781,-0.875 20.99,-0.875C9.037,-0.875 -0.689,8.852 -0.689,20.805C-0.689,24.623 0.307,28.354 2.201,31.645L-0.875,42.875L10.619,39.857C13.783,41.586 17.348,42.494 20.98,42.494L20.99,42.494C32.934,42.494 42.875,32.768 42.875,20.814C42.875,15.023 40.414,9.584 36.322,5.482L36.322,5.482ZM20.99,38.842C17.748,38.842 14.574,37.973 11.811,36.332L11.156,35.941L4.34,37.729L6.156,31.078L5.727,30.395C3.92,27.523 2.973,24.213 2.973,20.805C2.973,10.873 11.059,2.787 21,2.787C25.814,2.787 30.336,4.662 33.734,8.07C37.133,11.479 39.223,16 39.213,20.814C39.213,30.756 30.922,38.842 20.99,38.842L20.99,38.842ZM30.873,25.346C30.336,25.072 27.67,23.764 27.172,23.588C26.674,23.402 26.313,23.314 25.951,23.861C25.59,24.408 24.555,25.619 24.232,25.99C23.92,26.352 23.598,26.4 23.061,26.127C19.877,24.535 17.787,23.285 15.688,19.682C15.131,18.725 16.244,18.793 17.279,16.723C17.455,16.361 17.367,16.049 17.23,15.775C17.094,15.502 16.01,12.836 15.561,11.752C15.121,10.697 14.672,10.844 14.34,10.824C14.027,10.805 13.666,10.805 13.305,10.805C12.943,10.805 12.357,10.941 11.859,11.479C11.361,12.025 9.965,13.334 9.965,16C9.965,18.666 11.908,21.244 12.172,21.605C12.445,21.967 15.99,27.436 21.43,29.789C24.867,31.273 26.215,31.4 27.934,31.146C28.979,30.99 31.137,29.838 31.586,28.568C32.035,27.299 32.035,26.215 31.898,25.99C31.771,25.746 31.41,25.609 30.873,25.346Z" fill="#FFFFFF"/>
</svg>
