<svg width="38" height="38" viewBox="0 0 38 38" fill="none" xmlns="http://www.w3.org/2000/svg" xmlns:xlink="http://www.w3.org/1999/xlink">
<path d="M34.667,26.2L32.667,26.15C32.667,26.167 32.667,26.183 32.667,26.2L34.667,26.2ZM34.667,31.2L32.667,31.2L32.667,31.208L34.667,31.2ZM33.587,33.67L34.939,35.143L33.587,33.67ZM31.033,34.533L30.817,36.521C30.829,36.523 30.841,36.524 30.853,36.525L31.033,34.533ZM16.65,29.416L17.738,27.738L17.723,27.728L16.65,29.416ZM6.65,19.417L8.338,18.344L8.329,18.329L6.65,19.417ZM1.533,4.967L-0.459,5.147C-0.458,5.157 -0.457,5.167 -0.456,5.178L1.533,4.967ZM4.85,1.333L4.85,-0.667L4.848,-0.667L4.85,1.333ZM9.85,1.333L9.85,3.333L9.87,3.333L9.85,1.333ZM13.183,4.2L15.166,3.938L15.164,3.92L13.183,4.2ZM14.35,8.883L12.476,9.582L12.478,9.587L14.35,8.883ZM13.6,12.4L15.014,13.814L15.022,13.806L13.6,12.4ZM11.483,14.517L10.069,13.102C9.432,13.739 9.3,14.722 9.745,15.505L11.483,14.517ZM21.483,24.516L20.495,26.255C21.277,26.7 22.261,26.567 22.898,25.931L21.483,24.516ZM23.6,22.4L22.194,20.978L22.186,20.986L23.6,22.4ZM27.117,21.65L26.413,23.522L26.417,23.524L27.117,21.65ZM31.8,22.816L32.079,20.836L32.062,20.834L31.8,22.816ZM32.667,26.2L32.667,31.2L36.667,31.2L36.667,26.2L32.667,26.2ZM32.667,31.208C32.667,31.394 32.629,31.577 32.555,31.748L36.22,33.35C36.518,32.669 36.67,31.934 36.667,31.192L32.667,31.208ZM32.555,31.748C32.481,31.918 32.372,32.07 32.235,32.196L34.939,35.143C35.486,34.641 35.922,34.03 36.22,33.35L32.555,31.748ZM32.235,32.196C32.098,32.321 31.936,32.417 31.761,32.476L33.042,36.266C33.746,36.028 34.392,35.645 34.939,35.143L32.235,32.196ZM31.761,32.476C31.585,32.536 31.398,32.558 31.213,32.541L30.853,36.525C31.593,36.592 32.338,36.504 33.042,36.266L31.761,32.476ZM31.249,32.545C26.432,32.021 21.804,30.375 17.738,27.738L15.562,31.095C20.153,34.072 25.378,35.93 30.817,36.521L31.249,32.545ZM17.723,27.728C13.943,25.327 10.739,22.123 8.338,18.344L4.962,20.489C7.678,24.764 11.303,28.388 15.577,31.105L17.723,27.728ZM8.329,18.329C5.683,14.245 4.036,9.595 3.522,4.755L-0.456,5.178C0.125,10.642 1.984,15.892 4.971,20.504L8.329,18.329ZM3.525,4.787C3.509,4.602 3.53,4.416 3.59,4.241L-0.201,2.964C-0.438,3.666 -0.525,4.409 -0.459,5.147L3.525,4.787ZM3.59,4.241C3.649,4.065 3.744,3.904 3.868,3.768L0.914,1.071C0.415,1.618 0.035,2.262 -0.201,2.964L3.59,4.241ZM3.868,3.768C3.993,3.631 4.145,3.522 4.314,3.447L2.698,-0.212C2.021,0.087 1.413,0.524 0.914,1.071L3.868,3.768ZM4.314,3.447C4.484,3.372 4.667,3.333 4.852,3.333L4.848,-0.667C4.108,-0.666 3.375,-0.511 2.698,-0.212L4.314,3.447ZM4.85,3.333L9.85,3.333L9.85,-0.667L4.85,-0.667L4.85,3.333ZM9.87,3.333C10.193,3.33 10.507,3.444 10.752,3.655L13.36,0.623C12.379,-0.221 11.124,-0.679 9.83,-0.667L9.87,3.333ZM10.752,3.655C10.997,3.866 11.158,4.159 11.203,4.48L15.164,3.92C14.982,2.638 14.342,1.467 13.36,0.623L10.752,3.655ZM11.2,4.461C11.431,6.211 11.859,7.929 12.476,9.582L16.224,8.184C15.712,6.813 15.357,5.389 15.166,3.938L11.2,4.461ZM12.478,9.587C12.568,9.826 12.587,10.085 12.534,10.334L16.446,11.168C16.659,10.171 16.581,9.134 16.222,8.179L12.478,9.587ZM12.534,10.334C12.481,10.583 12.357,10.812 12.178,10.994L15.022,13.806C15.739,13.081 16.233,12.166 16.446,11.168L12.534,10.334ZM12.186,10.986L10.069,13.102L12.898,15.931L15.014,13.814L12.186,10.986ZM9.745,15.505C12.295,19.991 16.009,23.705 20.495,26.255L22.472,22.778C18.612,20.583 15.417,17.388 13.222,13.528L9.745,15.505ZM22.898,25.931L25.014,23.814L22.186,20.986L20.069,23.102L22.898,25.931ZM25.006,23.822C25.188,23.643 25.416,23.519 25.666,23.466L24.831,19.554C23.834,19.767 22.919,20.261 22.194,20.978L25.006,23.822ZM25.666,23.466C25.915,23.413 26.174,23.432 26.413,23.522L27.82,19.778C26.866,19.419 25.829,19.341 24.831,19.554L25.666,23.466ZM26.417,23.524C28.071,24.141 29.789,24.569 31.538,24.799L32.062,20.834C30.611,20.642 29.187,20.288 27.816,19.776L26.417,23.524ZM31.521,24.797C31.844,24.843 32.14,25.006 32.352,25.255L35.403,22.669C34.558,21.671 33.375,21.019 32.079,20.836L31.521,24.797ZM32.352,25.255C32.563,25.505 32.675,25.823 32.667,26.15L36.666,26.249C36.698,24.942 36.249,23.668 35.403,22.669L32.352,25.255Z" fill="#B00000"/>
</svg>
